<svg xmlns="http://www.w3.org/2000/svg" width="78.358" height="68.068" viewBox="0 0 78.358 68.068"><defs><style>.a{fill:#575656;}.b{fill:#d50000;}</style></defs><g transform="translate(-2676.132 -1180.166)"><path class="a" d="M818.11-1314.244a10.853,10.853,0,0,0,10.842-10.841,10.854,10.854,0,0,0-10.842-10.842,10.854,10.854,0,0,0-10.842,10.842A10.854,10.854,0,0,0,818.11-1314.244Zm0-19.224a8.392,8.392,0,0,1,8.382,8.383,8.391,8.391,0,0,1-8.382,8.382,8.391,8.391,0,0,1-8.382-8.382A8.392,8.392,0,0,1,818.11-1333.468Zm-29.936,42.822,9.428,5.226a4.926,4.926,0,0,0,6.687-1.917,4.894,4.894,0,0,0,.426-3.741,4.887,4.887,0,0,0-2.344-2.947l-2.423-1.343,4.818-3.263,1.683,14.887a1.23,1.23,0,0,0,1.36,1.084,1.231,1.231,0,0,0,1.085-1.36l-1.913-16.906a1.232,1.232,0,0,0-.708-.98,1.232,1.232,0,0,0-1.2.1l-8.158,5.526a1.229,1.229,0,0,0-.539,1.073,1.232,1.232,0,0,0,.633,1.021l4.174,2.313a2.444,2.444,0,0,1,1.172,1.473,2.448,2.448,0,0,1-.213,1.87,2.461,2.461,0,0,1-3.344.958l-9.428-5.226a2.476,2.476,0,0,1-1.264-2.042,2.473,2.473,0,0,1,1.078-2.146l16.191-10.965a2.451,2.451,0,0,1,1.38-.423h23.365a2.451,2.451,0,0,1,2.071,1.132l16.027,24.7a1.229,1.229,0,0,0,1.033.561,1.227,1.227,0,0,0,.668-.2,1.23,1.23,0,0,0,.362-1.7l-16.025-24.694a4.9,4.9,0,0,0-4.136-2.257H806.75a4.91,4.91,0,0,0-2.759.845L787.8-1299.022a4.954,4.954,0,0,0-2.155,4.292A4.951,4.951,0,0,0,788.173-1290.647Zm42.439-8.422a1.228,1.228,0,0,0-.926,1.1l-1.1,14a1.229,1.229,0,0,0,1.129,1.323,1.22,1.22,0,0,0,1.322-1.129l.818-10.357,7.45,11.594a1.231,1.231,0,0,0,1.035.565,1.221,1.221,0,0,0,.664-.2,1.229,1.229,0,0,0,.37-1.7l-9.424-14.665A1.229,1.229,0,0,0,830.612-1299.069Zm21.705,21.371H783.8a4.925,4.925,0,0,0-4.919,4.919,4.924,4.924,0,0,0,4.919,4.919h68.52a4.924,4.924,0,0,0,4.919-4.919A4.925,4.925,0,0,0,852.317-1277.7Zm0,7.379H783.8a2.463,2.463,0,0,1-2.46-2.459,2.463,2.463,0,0,1,2.46-2.46h68.52a2.462,2.462,0,0,1,2.459,2.46A2.463,2.463,0,0,1,852.317-1270.32Z" transform="translate(1897.254 2516.094)"/><g transform="translate(2686.969 1207.55)"><path class="b" d="M807.382-1281.561a1.406,1.406,0,0,1-1.049-.468l-18.845-20.934a1.411,1.411,0,0,1,.105-1.993,1.411,1.411,0,0,1,1.993.1l18.844,20.934a1.411,1.411,0,0,1-.1,1.993A1.4,1.4,0,0,1,807.382-1281.561Z" transform="translate(-787.125 1305.318)"/></g></g></svg>