<svg xmlns="http://www.w3.org/2000/svg" width="54.018" height="60" viewBox="0 0 54.018 60"><defs><style>.a{fill:#d50000;}.b{fill:#575656;}</style></defs><g transform="translate(-542.663 1105.289)"><path class="a" d="M568.813-1076.8a.991.991,0,0,0-1.068-.718,1.112,1.112,0,0,0-1.151.846l-4.582,15.569a1.43,1.43,0,0,0-.067.421,1.143,1.143,0,0,0,.327.826,1.1,1.1,0,0,0,.83.338,1.171,1.171,0,0,0,.653-.2.685.685,0,0,0,.34-.411l.991-3.308h5.21l.9,3.089a1.072,1.072,0,0,0,1.137.826,1.014,1.014,0,0,0,.745-.332,1.109,1.109,0,0,0,.325-.806,1.169,1.169,0,0,0-.054-.338Zm-3.035,11.066,1.952-6.515,1.9,6.515Zm16.14-8.543a.741.741,0,0,0-.53-.213h-2.258v-2.259a.691.691,0,0,0-.21-.507.691.691,0,0,0-.508-.211.74.74,0,0,0-.533.211.677.677,0,0,0-.219.507v2.259H575.4a.7.7,0,0,0-.516.218.707.707,0,0,0-.219.516.7.7,0,0,0,.219.52.711.711,0,0,0,.516.215h2.259v2.258a.735.735,0,0,0,.214.535.7.7,0,0,0,.521.218.733.733,0,0,0,.529-.218.72.72,0,0,0,.224-.535v-2.258h2.241a.739.739,0,0,0,.53-.215.694.694,0,0,0,.223-.52A.7.7,0,0,0,581.917-1074.276Z" transform="translate(0.352 -13.092)"/><path class="b" d="M551.447-1061.283a1.131,1.131,0,0,0,1.227,1h33.994a1.131,1.131,0,0,0,1.227-1,1.131,1.131,0,0,0-1.227-1H552.675A1.131,1.131,0,0,0,551.447-1061.283Zm18.225,3.983h-17a1.131,1.131,0,0,0-1.227,1,1.131,1.131,0,0,0,1.227,1h17a1.131,1.131,0,0,0,1.228-1A1.131,1.131,0,0,0,569.672-1057.3Zm25.781-47.989H555.961a1.532,1.532,0,0,0-.229.018l-.021,0a1.445,1.445,0,0,0-.286.083l-.075.032a1.226,1.226,0,0,0-.258.156l-12.07,9.836a1.025,1.025,0,0,0-.192.211c-.014.019-.026.038-.038.058a.892.892,0,0,0-.106.242v0a.8.8,0,0,0-.024.193v48.163a1.131,1.131,0,0,0,1.228,1h51.563a1.131,1.131,0,0,0,1.228-1v-58A1.131,1.131,0,0,0,595.453-1105.289Zm-40.719,3.415v6.421h-7.88Zm39.492,54.584H545.118v-46.162h10.843a1.132,1.132,0,0,0,1.228-1v-8.836h37.037Z"/></g></svg>