<svg xmlns="http://www.w3.org/2000/svg" width="60.49" height="64.811" viewBox="0 0 60.49 64.811"><defs><style>.a{fill:#575656;}.b{fill:#d50000;}</style></defs><g transform="translate(-16)"><g transform="translate(51.448 2.678)"><path class="a" d="M278.929,19.832l-.4,2.124a28.2,28.2,0,0,1,15.731,8.881l1.61-1.441A30.376,30.376,0,0,0,278.929,19.832Z" transform="translate(-278.532 -19.832)"/></g><g transform="translate(23.842 2.678)"><path class="a" d="M90.882,19.832a30.38,30.38,0,0,0-16.8,9.409l1.6,1.451a28.215,28.215,0,0,1,15.6-8.737Z" transform="translate(-74.078 -19.832)"/></g><g transform="translate(16 22.324)"><g transform="translate(0)"><path class="a" d="M19.757,166.052l-2.036-.72a30.382,30.382,0,0,0,0,20.164l2.036-.72A28.235,28.235,0,0,1,19.757,166.052Z" transform="translate(-16 -165.332)"/></g></g><g transform="translate(24.961 52.359)"><path class="a" d="M83.888,387.781l-1.521,1.535a30.087,30.087,0,0,0,15.685,8.239l.4-2.124A27.926,27.926,0,0,1,83.888,387.781Z" transform="translate(-82.367 -387.781)"/></g><g transform="translate(52.487 52.169)"><path class="a" d="M299.939,386.371A28.009,28.009,0,0,1,286.226,394l.479,2.107a30.157,30.157,0,0,0,14.768-8.212Z" transform="translate(-286.226 -386.371)"/></g><g transform="translate(72.733 24.565)"><path class="a" d="M438.9,181.93l-2.087.559a28.267,28.267,0,0,1-.644,16.643l2.036.72A30.418,30.418,0,0,0,438.9,181.93Z" transform="translate(-436.172 -181.93)"/></g><g transform="translate(68.929 15.123)"><path class="b" d="M413.4,112H409.08a1.08,1.08,0,0,0-1.08,1.08h0V117.4a1.08,1.08,0,0,0,1.08,1.08H413.4a1.08,1.08,0,0,0,1.08-1.08h0V113.08A1.08,1.08,0,0,0,413.4,112Zm-1.081,4.321h-2.16v-2.16h2.16Z" transform="translate(-408 -112)"/></g><g transform="translate(43.005 0)"><g transform="translate(0 0)"><path class="b" d="M221.4,0H217.08A1.08,1.08,0,0,0,216,1.08h0V5.4a1.08,1.08,0,0,0,1.08,1.08H221.4a1.08,1.08,0,0,0,1.08-1.08h0V1.08A1.08,1.08,0,0,0,221.4,0Zm-1.081,4.321h-2.16V2.16h2.16Z" transform="translate(-216 0)"/></g></g><g transform="translate(18.16 14.042)"><g transform="translate(0)"><path class="b" d="M37.4,104H33.08A1.08,1.08,0,0,0,32,105.08h0V109.4a1.08,1.08,0,0,0,1.08,1.08H37.4a1.08,1.08,0,0,0,1.08-1.08h0V105.08A1.08,1.08,0,0,0,37.4,104Zm-1.081,4.321H34.16v-2.16h2.16Z" transform="translate(-32 -104)"/></g></g><g transform="translate(18.16 44.288)"><g transform="translate(0)"><path class="b" d="M37.4,328H33.08A1.08,1.08,0,0,0,32,329.08h0V333.4a1.08,1.08,0,0,0,1.08,1.08H37.4a1.08,1.08,0,0,0,1.08-1.08h0V329.08A1.08,1.08,0,0,0,37.4,328Zm-1.081,4.321H34.16v-2.16h2.16Z" transform="translate(-32 -328)"/></g></g><g transform="translate(43.005 58.33)"><path class="b" d="M221.4,432H217.08a1.08,1.08,0,0,0-1.08,1.08h0V437.4a1.08,1.08,0,0,0,1.08,1.08H221.4a1.08,1.08,0,0,0,1.08-1.08h0V433.08A1.08,1.08,0,0,0,221.4,432Zm-1.081,4.321h-2.16v-2.16h2.16Z" transform="translate(-216 -432)"/></g><g transform="translate(67.849 44.288)"><path class="b" d="M405.4,328H401.08a1.08,1.08,0,0,0-1.08,1.08h0V333.4a1.08,1.08,0,0,0,1.08,1.08H405.4a1.08,1.08,0,0,0,1.08-1.08h0V329.08A1.08,1.08,0,0,0,405.4,328Zm-1.081,4.321h-2.16v-2.16h2.16Z" transform="translate(-400 -328)"/></g><g transform="translate(24.641 10.802)"><path class="a" d="M101.6,80a21.6,21.6,0,1,0,21.6,21.6A21.6,21.6,0,0,0,101.6,80Zm-6.314,3.234a18.273,18.273,0,0,0-3.028,4.9c-1.4-.158-2.759-.349-4.061-.577A19.45,19.45,0,0,1,95.289,83.234Zm-8.818,6.19c1.587.317,3.256.585,5,.794a35.538,35.538,0,0,0-1.718,10.306H82.215A19.332,19.332,0,0,1,86.471,89.424Zm-4.256,13.26h7.536a35.541,35.541,0,0,0,1.718,10.306c-1.742.209-3.411.477-5,.794A19.334,19.334,0,0,1,82.215,102.684Zm5.986,12.97c1.3-.228,2.661-.42,4.061-.577a18.275,18.275,0,0,0,3.028,4.9A19.453,19.453,0,0,1,88.2,115.654Zm12.323,5.258c-2.312-.539-4.4-2.781-5.95-6.059,1.929-.158,3.92-.25,5.95-.275Zm0-8.494c-2.33.027-4.615.14-6.816.339a33.087,33.087,0,0,1-1.8-10.073h8.613Zm0-11.894H91.91a33.087,33.087,0,0,1,1.8-10.073c2.2.2,4.486.312,6.816.339Zm0-11.894c-2.03-.024-4.021-.117-5.95-.275,1.548-3.278,3.638-5.52,5.95-6.059Zm20.469,11.894h-7.536a35.541,35.541,0,0,0-1.718-10.306c1.742-.209,3.411-.477,5-.794A19.334,19.334,0,0,1,120.992,100.523Zm-5.986-12.97c-1.3.228-2.661.42-4.061.577a18.275,18.275,0,0,0-3.028-4.9A19.453,19.453,0,0,1,115.007,87.554ZM102.684,82.3c2.312.539,4.4,2.781,5.95,6.059-1.929.158-3.92.25-5.95.275Zm0,8.494c2.33-.027,4.615-.14,6.816-.339a33.088,33.088,0,0,1,1.8,10.073h-8.613Zm0,11.894H111.3a33.087,33.087,0,0,1-1.8,10.073c-2.2-.2-4.486-.312-6.816-.339Zm0,18.228v-6.334c2.03.024,4.021.117,5.95.275C107.086,118.131,105,120.373,102.684,120.912Zm5.234-.938a18.273,18.273,0,0,0,3.028-4.9c1.4.158,2.759.349,4.061.577A19.45,19.45,0,0,1,107.918,119.974Zm8.818-6.19c-1.587-.317-3.256-.585-5-.794a35.538,35.538,0,0,0,1.718-10.306h7.536A19.332,19.332,0,0,1,116.737,113.784Z" transform="translate(-80 -80)"/></g></g></svg>