<svg xmlns="http://www.w3.org/2000/svg" width="69" height="60" viewBox="0 0 69 60"><defs><style>.a{fill:#575656;}.b{fill:#fff;stroke:#575656;stroke-width:2px;}.c{fill:#d50000;fill-rule:evenodd;}.d{stroke:none;}.e{fill:none;}</style></defs><g transform="translate(-178 -2220.053)"><g transform="translate(178 2220.053)"><path class="a" d="M1244.9-1051.5a12.854,12.854,0,0,0,12.839-12.84,12.854,12.854,0,0,0-12.839-12.839,12.853,12.853,0,0,0-12.84,12.839A12.854,12.854,0,0,0,1244.9-1051.5Zm0-22.469a9.64,9.64,0,0,1,9.629,9.629,9.64,9.64,0,0,1-9.629,9.63,9.64,9.64,0,0,1-9.63-9.63A9.64,9.64,0,0,1,1244.9-1073.966Z" transform="translate(-1220.286 1077.177)"/><path class="a" d="M1245.628-1049.771c-13.214,0-23.964,7.332-23.964,16.344,0,2.751,2.763,4.816,8.214,6.139a70.087,70.087,0,0,0,15.75,1.572c4,0,23.963-.372,23.963-7.711C1269.591-1042.439,1258.841-1049.771,1245.628-1049.771Zm0,20.844c-12.858,0-20.754-2.621-20.754-4.5,0-7.241,9.31-13.134,20.754-13.134s20.752,5.893,20.752,13.134C1266.38-1031.548,1258.485-1028.927,1245.628-1028.927Z" transform="translate(-1221.664 1078.61)"/></g><g class="b" transform="translate(212 2246.053)"><ellipse class="d" cx="17.5" cy="17" rx="17.5" ry="17"/><ellipse class="e" cx="17.5" cy="17" rx="16.5" ry="16"/></g><g transform="translate(219.723 2253.563)"><path class="c" d="M20.125,28.512h0V28.44a4,4,0,0,1,3.955-3.991h7.982v2.625l5.249-3.991L32.062,19.2v2.625H24.08A6.637,6.637,0,0,0,17.5,28.44v.072Z" transform="translate(-17.464 -19.2)"/><path class="c" d="M34.623,45.1a4.021,4.021,0,0,1-3.991,3.955H22.685V46.43L17.4,50.421l5.285,3.919V51.716h7.946a6.583,6.583,0,0,0,6.58-6.58H34.623Z" transform="translate(-17.4 -35.788)"/></g></g></svg>